<?xml version="1.0" encoding="UTF-8" standalone="no"?>
<svg
   xmlns:dc="http://purl.org/dc/elements/1.1/"
   xmlns:cc="http://creativecommons.org/ns#"
   xmlns:rdf="http://www.w3.org/1999/02/22-rdf-syntax-ns#"
   xmlns:svg="http://www.w3.org/2000/svg"
   xmlns="http://www.w3.org/2000/svg"
   xmlns:sodipodi="http://sodipodi.sourceforge.net/DTD/sodipodi-0.dtd"
   xmlns:inkscape="http://www.inkscape.org/namespaces/inkscape"
   width="1860.0747mm"
   height="1125.9601mm"
   viewBox="0 0 1860.0747 1125.9601"
   version="1.1"
   id="svg8"
   sodipodi:docname="app_icon.svg"
   inkscape:version="1.0.1 (c497b03c, 2020-09-10)">
  <defs
     id="defs2">
    <marker
       inkscape:stockid="Arrow1Lstart"
       orient="auto"
       refY="0"
       refX="0"
       id="Arrow1Lstart"
       style="overflow:visible"
       inkscape:isstock="true">
      <path
         id="path4575"
         d="M 0,0 5,-5 -12.5,0 5,5 Z"
         style="fill:#000000;fill-opacity:1;fill-rule:evenodd;stroke:#000000;stroke-width:1pt;stroke-opacity:1"
         transform="matrix(0.8,0,0,0.8,10,0)"
         inkscape:connector-curvature="0" />
    </marker>
    <marker
       inkscape:stockid="Arrow2Lstart"
       orient="auto"
       refY="0"
       refX="0"
       id="Arrow2Lstart"
       style="overflow:visible"
       inkscape:isstock="true">
      <path
         id="path4593"
         style="fill:#000000;fill-opacity:1;fill-rule:evenodd;stroke:#000000;stroke-width:0.625;stroke-linejoin:round;stroke-opacity:1"
         d="M 8.7185878,4.0337352 -2.2072895,0.01601326 8.7185884,-4.0017078 c -1.7454984,2.3720609 -1.7354408,5.6174519 -6e-7,8.035443 z"
         transform="matrix(1.1,0,0,1.1,1.1,0)"
         inkscape:connector-curvature="0" />
    </marker>
    <style
       id="style3699"
       type="text/css">
    .fil0 {fill:#D7CC75}
    .fil1 {fill:#373435;fill-rule:nonzero}
  </style>
  </defs>
  <sodipodi:namedview
     id="base"
     pagecolor="#ffffff"
     bordercolor="#666666"
     borderopacity="1.0"
     inkscape:pageopacity="0.0"
     inkscape:pageshadow="2"
     inkscape:zoom="0.0875"
     inkscape:cx="5234.2381"
     inkscape:cy="2521.4061"
     inkscape:document-units="mm"
     inkscape:current-layer="layer1"
     showgrid="false"
     inkscape:window-width="1440"
     inkscape:window-height="781"
     inkscape:window-x="1609"
     inkscape:window-y="25"
     inkscape:window-maximized="0"
     fit-margin-top="0"
     fit-margin-left="0"
     fit-margin-right="0"
     fit-margin-bottom="0"
     inkscape:document-rotation="0" />
  <metadata
     id="metadata5">
    <rdf:RDF>
      <cc:Work
         rdf:about="">
        <dc:format>image/svg+xml</dc:format>
        <dc:type
           rdf:resource="http://purl.org/dc/dcmitype/StillImage" />
        <dc:title></dc:title>
      </cc:Work>
    </rdf:RDF>
  </metadata>
  <g
     inkscape:label="Ebene 1"
     inkscape:groupmode="layer"
     id="layer1"
     transform="translate(2589.5804,-223.14873)">
    <path
       style="fill:none;stroke:#000000;stroke-width:0.264583px;stroke-linecap:butt;stroke-linejoin:miter;stroke-opacity:1"
       d="M 931.33332,-162.61905 Z"
       id="path3766"
       inkscape:connector-curvature="0" />
    <g
       id="g82"
       transform="translate(178.40476,244.92857)"
       inkscape:export-xdpi="13.98"
       inkscape:export-ydpi="13.98">
      <g
         id="g65"
         transform="translate(-541.2619,-75.595238)">
        <path
           class="fil0"
           d="m -1420.0063,246.53196 1015.3136,374.6543 c 20.08313,7.4108 26.45755,28.4155 14.10572,46.6754 L -714.2807,1150.0085 -1802.5949,748.41666 -1478.9011,266.26985 c 12.1924,-18.31867 38.6523,-27.20745 58.7354,-19.79671 z m -102.6512,-144.36135 102.1689,37.70069 23.0556,-62.48084 c 5.5287,-14.98265 22.3305,-22.72689 37.3131,-17.19824 l 255.8208,94.39877 c 14.9827,5.52865 22.7269,22.33046 17.1983,37.31311 l -23.0557,62.48084 602.65318,222.38114 c 20.08313,7.41075 30.4423,29.8859 23.03155,49.96902 l -21.11474,57.22096 -914.57919,-337.48292 c -20.0831,-7.41074 -46.543,1.47804 -58.7354,19.79671 l -323.6938,482.14681 229.9684,-623.2145 c 7.4107,-20.08312 29.8859,-30.44229 49.969,-23.03155 z"
           id="folder"
           inkscape:connector-curvature="0"
           style="clip-rule:evenodd;fill:#000080;fill-rule:evenodd;stroke-width:0.169895;image-rendering:optimizeQuality;shape-rendering:geometricPrecision;text-rendering:geometricPrecision" />
        <path
           class="fil1"
           d="m -1410.6854,248.76525 902.46488,333.00871 16.64477,-45.10701 c 2.47025,-6.69391 1.99561,-13.75022 -0.82048,-19.85966 -2.81608,-6.10937 -7.87304,-11.05367 -14.56741,-13.52385 l -614.76616,-226.84909 27.5256,-74.59448 c 1.5292,-4.14413 1.1875,-8.61646 -0.5223,-12.32595 -1.7097,-3.70949 -4.8881,-6.87435 -9.0323,-8.40355 L -1359.5795,86.7116 c -4.1442,-1.5292 -8.6165,-1.18748 -12.326,0.52229 -3.7095,1.70976 -6.8743,4.88815 -8.4035,9.03229 l -27.5257,74.59447 -114.2825,-42.17066 c -6.6944,-2.47025 -13.751,-1.99561 -19.8608,0.82048 -6.1097,2.81608 -11.0544,7.87304 -13.5246,14.56741 l -192.5029,521.67888 263.3785,-392.30253 c 7.7336,-11.6337 19.879,-20.00961 33.1383,-24.5337 13.2594,-4.52408 28.0521,-4.86051 40.8033,-0.15528 z m 926.69215,341.94861 88.62078,32.7014 c 3.66597,1.3528 6.9961,3.1249 10.2086,5.2158 8.26181,5.5839 13.92986,13.2893 16.66066,22.084 2.73081,8.7947 2.48261,18.301 -0.9875,27.705 -1.29394,3.5066 -3.18368,7.1555 -5.61041,10.7873 l -323.69308,482.14694 -5.6427,8.4212 -1109.9912,-409.59074 234.4383,-635.32384 c 4.9405,-13.38876 14.8297,-23.50266 26.9904,-28.97544 12.0013,-5.5316 26.1734,-6.64027 39.5622,-1.69978 l 90.0552,33.23072 18.5857,-50.36721 c 3.9995,-10.83851 12.1089,-19.07385 21.9282,-23.5997 9.8192,-4.52586 21.3482,-5.34222 32.1867,-1.34277 l 255.8208,94.39877 c 10.8386,3.99945 19.0739,12.10892 23.5997,21.92816 4.5259,9.81924 5.3423,21.34825 1.3428,32.18676 l -18.5857,50.36721 590.53892,217.91058 c 13.38875,4.94023 23.50266,14.82886 28.97544,26.98887 5.53159,12.00064 6.64027,26.17193 1.69977,39.56007 l -16.64476,45.1073 z m 79.68084,56.9287 -1015.31299,-374.65004 c -7.1725,-2.6467 -15.7814,-2.38261 -23.6614,0.32349 -8.0395,2.64728 -15.3503,7.73659 -19.8091,14.42155 l -314.4991,468.5126 1063.29,392.35784 317.9915,-473.56634 c 1.18395,-1.7362 2.04913,-3.5901 2.75491,-5.5027 1.47039,-3.9848 1.58978,-7.7437 0.61815,-10.9997 -0.97163,-3.256 -3.13487,-6.2274 -6.50676,-8.3771 -1.31687,-0.8481 -3.01135,-1.6545 -4.92403,-2.3602 z"
           id="outline"
           inkscape:connector-curvature="0"
           style="clip-rule:evenodd;fill:#333333;fill-rule:nonzero;stroke-width:0.169895;image-rendering:optimizeQuality;shape-rendering:geometricPrecision;text-rendering:geometricPrecision" />
      </g>
      <g
         id="g59"
         transform="translate(-1246.659,-615.22534)">
        <path
           class="fil0"
           d="m -893.09592,783.49022 1015.3136,374.65428 c 20.08313,7.4108 26.45755,28.4155 14.10572,46.6754 l -323.69372,482.1468 -1088.31418,-401.5918 323.69378,-482.14679 c 12.1924,-18.31867 38.6523,-27.20745 58.7354,-19.79671 z m -102.6512,-144.36135 102.1689,37.70069 23.0556,-62.48084 c 5.5287,-14.98265 22.3305,-22.72689 37.3131,-17.19824 l 255.8208,94.39877 c 14.9827,5.52865 22.7269,22.33046 17.1983,37.31311 l -23.0557,62.48084 602.65318,222.3811 c 20.08313,7.4108 30.4423,29.8859 23.03155,49.9691 l -21.11474,57.2209 -914.57919,-337.4829 c -20.0831,-7.41074 -46.543,1.47804 -58.7354,19.79671 l -323.69378,482.14679 229.9684,-623.21448 c 7.4107,-20.08312 29.8859,-30.44229 49.96898,-23.03155 z"
           id="folder-5"
           inkscape:connector-curvature="0"
           style="clip-rule:evenodd;fill:#ff0000;fill-rule:evenodd;stroke-width:0.169895;image-rendering:optimizeQuality;shape-rendering:geometricPrecision;text-rendering:geometricPrecision" />
        <path
           class="fil1"
           d="m -883.77502,785.72351 902.46488,333.00869 16.64477,-45.107 c 2.47025,-6.6939 1.99561,-13.7502 -0.82048,-19.8597 -2.81608,-6.1093 -7.87304,-11.0536 -14.56741,-13.5238 l -614.76616,-226.84909 27.5256,-74.59448 c 1.5292,-4.14413 1.1875,-8.61646 -0.5223,-12.32595 -1.7097,-3.70949 -4.8881,-6.87435 -9.0323,-8.40355 l -255.8207,-94.39877 c -4.1442,-1.5292 -8.6165,-1.18748 -12.326,0.52229 -3.7095,1.70976 -6.8743,4.88815 -8.4035,9.03229 l -27.5257,74.59447 -114.2825,-42.17066 c -6.69438,-2.47025 -13.75098,-1.99561 -19.86078,0.82048 -6.1097,2.81608 -11.0544,7.87304 -13.5246,14.56741 l -192.5029,521.67886 263.37848,-392.30251 c 7.7336,-11.6337 19.879,-20.00961 33.1383,-24.5337 13.2594,-4.52408 28.0521,-4.86051 40.8033,-0.15528 z m 926.69215,341.94859 88.62078,32.7014 c 3.66597,1.3528 6.9961,3.1249 10.2086,5.2158 8.26181,5.5839 13.92986,13.2893 16.66066,22.084 2.73081,8.7947 2.48261,18.301 -0.9875,27.705 -1.29394,3.5066 -3.18368,7.1555 -5.61041,10.7873 l -323.69308,482.1469 -5.6427,8.4212 -1109.99118,-409.5907 234.4383,-635.32382 c 4.9405,-13.38876 14.8297,-23.50266 26.9904,-28.97544 12.0013,-5.5316 26.17338,-6.64027 39.56218,-1.69978 l 90.0552,33.23072 18.5857,-50.36721 c 3.9995,-10.83851 12.1089,-19.07385 21.9282,-23.5997 9.8192,-4.52586 21.3482,-5.34222 32.1867,-1.34277 l 255.8208,94.39877 c 10.8386,3.99945 19.0739,12.10892 23.5997,21.92816 4.5259,9.81924 5.3423,21.34825 1.3428,32.18676 l -18.5857,50.36721 590.53892,217.9106 c 13.38875,4.9402 23.50266,14.8288 28.97544,26.9888 5.53159,12.0007 6.64027,26.172 1.69977,39.5601 l -16.64476,45.1073 z m 79.68084,56.9287 -1015.31299,-374.65002 c -7.1725,-2.6467 -15.7814,-2.38261 -23.6614,0.32349 -8.0395,2.64728 -15.3503,7.73659 -19.8091,14.42155 l -314.49908,468.51258 1063.28998,392.3578 317.9915,-473.5663 c 1.18395,-1.7362 2.04913,-3.5901 2.75491,-5.5027 1.47039,-3.9848 1.58978,-7.7437 0.61815,-10.9997 -0.97163,-3.256 -3.13487,-6.2274 -6.50676,-8.3771 -1.31687,-0.8481 -3.01135,-1.6545 -4.92403,-2.3602 z"
           id="outline-8"
           inkscape:connector-curvature="0"
           style="clip-rule:evenodd;fill:#333333;fill-rule:nonzero;stroke-width:0.169895;image-rendering:optimizeQuality;shape-rendering:geometricPrecision;text-rendering:geometricPrecision" />
      </g>
      <g
         id="g71"
         transform="translate(226.78569,-704.54762)">
        <path
           class="fil0"
           d="m -2600.349,870.89348 1015.3136,374.65432 c 20.0832,7.4108 26.4576,28.4155 14.1058,46.6754 l -323.6938,482.1468 -1088.3142,-401.5918 323.6938,-482.14683 c 12.1924,-18.31867 38.6523,-27.20745 58.7354,-19.79671 z m -102.6512,-144.36135 102.1689,37.70069 23.0556,-62.48084 c 5.5287,-14.98265 22.3305,-22.72689 37.3131,-17.19824 l 255.8208,94.39877 c 14.9827,5.52865 22.7269,22.33046 17.1983,37.31311 l -23.0557,62.48084 602.6532,222.38114 c 20.0831,7.4108 30.4423,29.8859 23.0316,49.969 l -21.1148,57.221 -914.5792,-337.48294 c -20.0831,-7.41074 -46.543,1.47804 -58.7354,19.79671 l -323.6938,482.14683 229.9684,-623.21452 c 7.4107,-20.08312 29.8859,-30.44229 49.969,-23.03155 z"
           id="folder-9"
           inkscape:connector-curvature="0"
           style="clip-rule:evenodd;fill:#00ff00;fill-rule:evenodd;stroke-width:0.169895;image-rendering:optimizeQuality;shape-rendering:geometricPrecision;text-rendering:geometricPrecision" />
        <path
           class="fil1"
           d="m -2591.0281,873.12677 902.4649,333.00873 16.6448,-45.107 c 2.4702,-6.6939 1.9956,-13.7502 -0.8205,-19.8597 -2.8161,-6.1094 -7.873,-11.0537 -14.5674,-13.5238 l -614.7662,-226.84913 27.5256,-74.59448 c 1.5292,-4.14413 1.1875,-8.61646 -0.5223,-12.32595 -1.7097,-3.70949 -4.8881,-6.87435 -9.0323,-8.40355 l -255.8207,-94.39877 c -4.1442,-1.5292 -8.6165,-1.18748 -12.326,0.52229 -3.7095,1.70976 -6.8743,4.88815 -8.4035,9.03229 l -27.5257,74.59447 -114.2825,-42.17066 c -6.6944,-2.47025 -13.751,-1.99561 -19.8608,0.82048 -6.1097,2.81608 -11.0544,7.87304 -13.5246,14.56741 l -192.5029,521.6789 263.3785,-392.30255 c 7.7336,-11.6337 19.879,-20.00961 33.1383,-24.5337 13.2594,-4.52408 28.0521,-4.86051 40.8033,-0.15528 z m 926.6922,341.94863 88.6208,32.7014 c 3.6659,1.3528 6.9961,3.1249 10.2086,5.2158 8.2618,5.5839 13.9298,13.2893 16.6606,22.084 2.7308,8.7947 2.4826,18.301 -0.9875,27.705 -1.2939,3.5066 -3.1837,7.1555 -5.6104,10.7873 l -323.6931,482.1469 -5.6427,8.4212 -1109.9912,-409.5907 234.4383,-635.32386 c 4.9405,-13.38876 14.8297,-23.50266 26.9904,-28.97544 12.0013,-5.5316 26.1734,-6.64027 39.5622,-1.69978 l 90.0552,33.23072 18.5857,-50.36721 c 3.9995,-10.83851 12.1089,-19.07385 21.9282,-23.5997 9.8192,-4.52586 21.3482,-5.34222 32.1867,-1.34277 l 255.8208,94.39877 c 10.8386,3.99945 19.0739,12.10892 23.5997,21.92816 4.5259,9.81924 5.3423,21.34825 1.3428,32.18676 l -18.5857,50.36721 590.539,217.91054 c 13.3887,4.9403 23.5026,14.8289 28.9754,26.9889 5.5316,12.0006 6.6403,26.1719 1.6998,39.5601 l -16.6448,45.1073 z m 79.6808,56.9287 -1015.313,-374.65006 c -7.1725,-2.6467 -15.7814,-2.38261 -23.6614,0.32349 -8.0395,2.64728 -15.3503,7.73659 -19.8091,14.42155 l -314.4991,468.51262 1063.29,392.3578 317.9915,-473.5663 c 1.184,-1.7362 2.0492,-3.5901 2.7549,-5.5027 1.4704,-3.9848 1.5898,-7.7437 0.6182,-10.9997 -0.9716,-3.256 -3.1349,-6.2274 -6.5068,-8.3771 -1.3168,-0.8481 -3.0113,-1.6545 -4.924,-2.3602 z"
           id="outline-0"
           inkscape:connector-curvature="0"
           style="clip-rule:evenodd;fill:#333333;fill-rule:nonzero;stroke-width:0.169895;image-rendering:optimizeQuality;shape-rendering:geometricPrecision;text-rendering:geometricPrecision" />
      </g>
    </g>
  </g>
</svg>
